<?xml version="1.0" encoding="utf-8"?>
<!-- Generator: Adobe Illustrator 16.0.0, SVG Export Plug-In . SVG Version: 6.00 Build 0)  -->
<!DOCTYPE svg PUBLIC "-//W3C//DTD SVG 1.1//EN" "http://www.w3.org/Graphics/SVG/1.1/DTD/svg11.dtd">
<svg version="1.1" xmlns="http://www.w3.org/2000/svg" xmlns:xlink="http://www.w3.org/1999/xlink" x="0px" y="0px" width="307px"
	 height="428px" viewBox="0 0 307 428" enable-background="new 0 0 307 428" xml:space="preserve">
<g id="Õ_xBA__x2264__x201E__x5F_1" display="none">
	<g display="inline">
		<path fill="#E44D26" d="M35.001,9.891h18.461v18.238h16.887V9.891h18.465v55.234H70.349V46.628H53.462v18.496H35.001V9.891
			L35.001,9.891z M35.001,9.891"/>
		<path fill="#E44D26" d="M113.091,28.207H96.837V9.891h50.976v18.316h-16.261v36.918h-18.461V28.207L113.091,28.207z
			 M113.091,28.207"/>
		<path fill="#E44D26" d="M155.903,9.891h19.25l11.843,19.406l11.828-19.406h19.258v55.234h-18.387V37.75l-12.699,19.637h-0.32
			l-12.71-19.637v27.375h-18.063V9.891L155.903,9.891z M155.903,9.891"/>
		<path fill="#E44D26" d="M227.27,9.891h18.469v36.977h25.961v18.257h-44.43V9.891L227.27,9.891z M227.27,9.891"/>
		<path fill="#E44D26" d="M8.001,90.387l26.41,296.207l118.504,32.898l118.835-32.945l26.438-296.16H8.001z M243.103,160.68
			l-1.657,18.418l-0.726,8.164h-0.117h-87.508h-0.125h-51.266l3.32,37.203h47.945h0.125h74.531h9.79l-0.887,9.754l-8.54,95.641
			l-0.547,6.136l-74.347,20.606v0.008l-0.168,0.047l-74.414-20.661l-5.09-57.039h16.808h19.661l2.586,28.974l40.457,10.926
			l0.035-0.01v-0.002l40.515-10.938l4.219-47.113h-44.609h-0.125H71.798l-8.93-100.113L62,150.934h90.969h0.125h90.879
			L243.103,160.68z"/>
	</g>
</g>
<g id="Layer_2" display="none">
	<g display="inline">
		<g>
			<g>
				<polygon fill="#1F62AE" points="86.363,47.665 86.363,30.142 111.929,30.142 111.929,10.967 67.187,10.967 67.187,65.164 
					111.929,65.164 111.929,47.665 				"/>
				<path fill="#1F62AE" d="M157.923,30.142h17.874V10.967h-44.746c0,0,0,9.625,0,19.175c5.985,5.987,9.109,8.852,17.766,17.511
					c-5.061,0-17.766,0.019-17.766,0.017v17.495h44.746V47.665L157.923,30.142z"/>
				<path fill="#1F62AE" d="M221.343,30.142h17.874V10.967h-44.749c0,0,0,9.625,0,19.175c5.986,5.987,9.11,8.852,17.769,17.511
					c-5.06,0-17.769,0.019-17.769,0.017v17.495h44.749V47.665L221.343,30.142z"/>
			</g>
			<path fill="#1F62AE" d="M8.256,90.922L35.432,385.34l117.769,31.71l117.768-31.71l27.18-294.418H8.256z M239.783,186.34
				l-86.688,37.062l-0.208,0.089h0.208h83.626l-9.587,110.258L153.23,355.32l-0.135-0.04v0.04l-74.304-21.97l-4.794-55.53h0.13
				h36.623h0.13l2.397,28.764l39.483,9.97l0.335-0.096v0.039l40.881-11.511l2.797-46.341l-102.902-0.329l-22.271-0.07l-2.796-34.755
				l84.291-35.105l4.913-2.046h-4.913H65.608l-4.394-35.554h91.881h90.284L239.783,186.34z"/>
		</g>
	</g>
</g>
<g id="Layer_3" display="none">
	<path display="inline" fill-rule="evenodd" clip-rule="evenodd" fill="#FFFFFF" d="M265.942,47.808V44h15.85v3.808h-5.703V63.03
		h-4.443V47.808H265.942L265.942,47.808z M286.87,48.443V63.03h-4.442V44h5.713l5.069,14.591L298.287,44h5.079v19.03h-3.809V48.443
		l-5.079,14.587h-2.529L286.87,48.443L286.87,48.443z"/>
	<path display="inline" fill-rule="evenodd" clip-rule="evenodd" fill="#EC1C24" d="M177.127,44h82.467c0,0.634,0,220.121,0,220.121
		c0,0.635-56.459-130.041-82.467-190.305V44L177.127,44z M177.127,264.121c4.444,0,8.886,0,12.687,0
		c0.635,0-5.069-12.051-12.687-29.177V264.121L177.127,264.121z M164.442,44h12.685v29.816C169.519,56.057,164.442,44,164.442,44
		L164.442,44z M177.127,234.944v29.177c-8.878,0-17.12,0-25.373,0c0-0.634-18.391-44.405-18.391-44.405c-13.322,0-26.642,0-39.963,0
		v-5.075c8.243-18.396,38.059-87.539,37.423-86.905C130.823,127.736,160.007,194.979,177.127,234.944L177.127,234.944z M93.4,49.709
		V44c1.265,0,1.9,0,1.9,0S94.665,45.905,93.4,49.709L93.4,49.709z M93.4,44v5.709C79.443,83.329,3.952,264.121,3.952,264.121
		c0-0.634,0-220.121,0-220.121S79.443,44,93.4,44L93.4,44z M93.4,214.641c-1.27,3.17-1.904,5.075-2.539,5.075
		c1.27,0,1.904,0,2.539,0V214.641L93.4,214.641z"/>
	<path display="inline" fill-rule="evenodd" clip-rule="evenodd" fill="#FFFFFF" d="M240.56,387.817V375.13l0,0
		c3.173,0,6.347-0.635,7.617-7.607h13.32C258.324,386.556,247.541,387.817,240.56,387.817L240.56,387.817z M240.56,358.645v-10.791
		h8.252c-0.635-12.687-3.808-15.226-8.252-15.226l0,0V319.95h0.635c8.887,0,20.938,5.068,20.938,35.521v3.174H240.56L240.56,358.645
		z M240.56,319.95v12.678c-7.609,0.644-8.242,10.782-8.242,15.226h8.242v10.791h-8.242c0,14.59,4.441,16.485,8.242,16.485v12.688
		c0,0,0,0-0.636,0c-7.606,0-21.563-2.53-21.563-33.616C218.36,332.628,227.238,320.577,240.56,319.95L240.56,319.95z
		 M189.813,387.817V375.13l0,0c6.982,0,8.251-11.417,8.251-20.929c0-17.765-5.077-21.573-8.251-21.573l0,0v-12.051
		c1.271-0.627,1.904-0.627,3.174-0.627c13.956,0,19.033,14.583,19.033,33.616c0,19.668-5.077,34.251-19.033,34.251
		C191.718,387.817,190.448,387.817,189.813,387.817L189.813,387.817z M189.813,320.577v12.051c-3.801,0-8.878,3.809-8.878,21.573
		c0,8.243,1.269,20.929,8.878,20.929v12.688c-3.801-1.262-6.338-3.8-8.878-9.514h-0.635v7.608h-12.052v-87.543h13.322v29.189
		C183.476,323.115,186.649,321.211,189.813,320.577L189.813,320.577z M137.799,387.817V375.13c5.712,0,8.887-5.077,8.887-20.929
		c0-17.13-3.809-21.573-8.887-21.573V319.95c15.224,0,21.572,14.583,21.572,34.251C159.371,373.861,153.023,387.817,137.799,387.817
		L137.799,387.817z M137.799,319.95v12.678c-3.804,0-8.244,3.174-8.244,21.573c0,18.392,4.439,20.929,8.244,20.929v12.688
		c-15.222,0-22.199-13.956-22.199-33.616C115.6,334.533,122.577,319.95,137.799,319.95L137.799,319.95z M85.148,387.817v-12.051l0,0
		c7.616,0,8.882-12.054,8.882-21.565c0-17.765-5.074-21.573-8.882-21.573l0,0v-12.051c3.174,0.634,5.073,2.538,8.251,6.347v-28.555
		h13.322v87.543H94.665v-7.608h-0.634C92.13,382.747,88.957,386.556,85.148,387.817L85.148,387.817z M40.745,298.369l20.299,87.543
		h-14.59l-3.174-16.485h-9.513v-14.591h6.343l-6.343-32.99v0.635v-24.111H40.745L40.745,298.369z M85.148,320.577v12.051
		c-3.17,0.644-8.248,3.809-8.248,21.573c0,8.243,1.273,20.929,8.248,21.565v12.051c-0.635,0-1.905,0-3.17,0
		c-13.321,0-19.029-15.225-19.029-34.251c0-15.859,4.438-33.616,19.029-33.616C83.244,319.95,84.513,319.95,85.148,320.577
		L85.148,320.577z M33.768,369.427h-8.878l-3.808,16.485H6.49l20.299-87.543h6.979v24.111l-6.344,32.355h6.344V369.427
		L33.768,369.427z"/>
</g>
<g id="Layer_4" display="none">
	<g display="inline">
		<path fill-rule="evenodd" clip-rule="evenodd" fill="#6481B9" d="M89.747,187.377H79.598l-5.676,29.208h7.85
			c6.563,0,11.438-1.194,14.483-3.539c2.999-2.307,5.079-6.353,6.182-12.023c1-5.157,0.646-8.862-1.025-10.718
			C100.206,188.971,97.203,187.377,89.747,187.377z"/>
		<path fill-rule="evenodd" clip-rule="evenodd" fill="#6481B9" d="M227.979,187.377h-10.147l-5.676,29.208h7.849
			c6.565,0,11.437-1.194,14.483-3.539c2.998-2.307,5.079-6.353,6.182-12.023c1.003-5.157,0.646-8.862-1.023-10.718
			C238.438,188.971,235.436,187.377,227.979,187.377z"/>
		<path fill-rule="evenodd" clip-rule="evenodd" fill="#6481B9" d="M153.878,132.904c-81.846,0-148.198,33.626-148.198,75.102
			c0,41.479,66.352,75.104,148.198,75.104c81.847,0,148.197-33.625,148.197-75.104C302.075,166.53,235.725,132.904,153.878,132.904z
			 M161.823,233.354c-0.458-0.553-0.645-1.284-0.506-1.991l6.99-35.972c0.866-4.457,0.095-5.871-0.278-6.273
			c-0.41-0.439-1.913-1.463-7.051-1.463h-12.056l-8.672,44.628c-0.22,1.131-1.212,1.95-2.366,1.95h-17.571
			c-0.719,0-1.4-0.322-1.859-0.879c-0.457-0.553-0.643-1.284-0.505-1.991l3.157-16.248c-1.934,3.378-4.447,6.504-7.487,9.3
			c-3.764,3.521-8.034,6.08-12.674,7.588c-4.539,1.479-10.349,2.23-17.268,2.23H70.493l-3.822,19.663
			c-0.221,1.134-1.213,1.949-2.367,1.949H46.595c-0.721,0-1.401-0.318-1.859-0.875c-0.458-0.556-0.644-1.288-0.506-1.991
			l15.802-81.301c0.221-1.133,1.212-1.951,2.366-1.951h34.056c10.925,0,19.078,2.992,24.232,8.891
			c2.798,3.205,4.547,7.09,5.258,11.611l7.806-40.167c0.22-1.132,1.211-1.95,2.366-1.95h17.57c0.72,0,1.402,0.321,1.86,0.877
			c0.458,0.556,0.643,1.286,0.506,1.994l-3.644,18.744h12.73c10.57,0,17.771,1.894,22.012,5.789
			c4.378,4.023,5.759,10.394,4.1,18.933l-7.352,37.834c-0.221,1.131-1.213,1.95-2.366,1.95h-17.849
			C162.962,234.232,162.282,233.91,161.823,233.354z M262.702,203.185c-0.815,4.202-2.221,8.104-4.175,11.604
			c-1.959,3.5-4.542,6.738-7.68,9.625c-3.766,3.521-8.036,6.08-12.676,7.588c-4.537,1.479-10.348,2.23-17.268,2.23h-13.183
			l-3.82,19.663c-0.22,1.134-1.215,1.949-2.368,1.949h-17.709c-0.721,0-1.401-0.318-1.859-0.875
			c-0.459-0.556-0.643-1.288-0.506-1.991l15.801-81.301c0.221-1.133,1.213-1.951,2.367-1.951h34.055
			c10.926,0,19.079,2.992,24.23,8.891C263.105,184.561,264.717,192.825,262.702,203.185z"/>
	</g>
</g>
<g id="Layer_5" display="none">
	<path display="inline" fill="#F7DF1E" d="M5.5,66v296h296V66H5.5z M166.582,296.865c0,28.81-16.888,41.925-41.527,41.925
		c-22.251,0-35.167-11.524-41.725-25.432h0v-0.001c0,0,0,0,0,0.001l22.652-13.708c4.37,7.749,8.346,14.304,17.881,14.304
		c9.141,0,14.903-3.576,14.903-17.482v-94.579h27.817V296.865z M232.356,338.792c-25.83,0-42.521-12.319-50.666-28.414
		l22.649-13.113c5.963,9.736,13.712,16.89,27.42,16.89c11.526,0,18.876-5.763,18.876-13.71c0-9.538-7.55-12.916-20.267-18.478
		l-6.952-2.982c-20.07-8.543-33.383-19.271-33.383-41.922c0-20.864,15.895-36.76,40.733-36.76c17.684,0,30.399,6.16,39.539,22.254
		l-21.658,13.908c-4.769-8.543-9.934-11.92-17.881-11.92c-8.147,0-13.313,5.166-13.313,11.92c0,8.346,5.166,11.725,17.087,16.891
		l6.953,2.979c23.646,10.134,36.959,20.465,36.959,43.712C278.453,325.083,258.781,338.792,232.356,338.792z"/>
</g>
<g id="Layer_6" display="none">
	<g display="inline">
		<path fill-rule="evenodd" clip-rule="evenodd" fill="#00949C" d="M4.352,184.271c0,73.151,100.575,100.39,150.264,25.9
			c51.492,77.229,148.033,44.855,148.033-26.015c0-70.87-96.084-104.944-148.033-25.813C105.384,80.126,4.352,111.12,4.352,184.271
			L4.352,184.271z M30.762,184.271c0-52.787,74.602-69.448,109.305,0C104.678,251.141,30.762,237.059,30.762,184.271L30.762,184.271
			z M169.158,184.271c31.266-70.817,107.89-51.303,107.662,0.114C276.592,235.806,199.511,251.825,169.158,184.271z"/>
		<rect x="58.801" y="176.86" fill-rule="evenodd" clip-rule="evenodd" fill="#00949C" width="44.269" height="14.604"/>
		<polygon fill-rule="evenodd" clip-rule="evenodd" fill="#00949C" points="219.447,191.236 204.843,191.236 204.843,175.719 
			219.447,175.719 219.447,161.114 234.966,161.114 234.966,175.719 249.569,175.719 249.569,191.236 234.966,191.236 
			234.966,205.841 219.447,205.841 		"/>
		<path fill="#00949C" d="M288.36,126.375v-6.562h-1.815v-1.336h4.857v1.336h-1.81v6.562H288.36L288.36,126.375z M292.184,126.375
			v-7.898h1.847l1.108,5.388l1.098-5.388h1.852v7.898h-1.146v-6.217l-1.214,6.217h-1.188l-1.21-6.217v6.217H292.184z"/>
		<path fill-rule="evenodd" clip-rule="evenodd" fill="#00949C" d="M130.747,294.445c0.071,14.357-7.306,21.309-21.564,20.853
			H96.976v-20.853v-20.83h12.207C123.441,273.159,130.818,280.103,130.747,294.445L130.747,294.445z M120.536,294.445
			c0.043-8.206-4.254-12.112-12.893-11.714v11.714v11.729C116.282,306.569,120.579,302.662,120.536,294.445z"/>
		<path fill-rule="evenodd" clip-rule="evenodd" fill="#00949C" d="M154.654,315.298c-11.736,0-16.318-3.904-16.774-13.802v-27.902
			h10.725v27.445c-0.233,4.405,1.785,6.275,6.05,6.275c4.264,0,6.255-1.87,6.021-6.275v-27.445h10.679v27.902
			C170.9,311.394,166.392,315.298,154.654,315.298z"/>
		<polygon fill-rule="evenodd" clip-rule="evenodd" fill="#00949C" points="195.27,273.594 179.638,273.594 179.638,282.515 
			190.018,282.515 190.018,294.445 190.018,306.376 179.638,306.376 179.638,315.298 195.27,315.298 210.889,315.298 
			210.889,306.376 200.513,306.376 200.513,294.445 200.513,282.515 210.889,282.515 210.889,273.594 		"/>
		<polygon fill-rule="evenodd" clip-rule="evenodd" fill="#00949C" points="241.475,294.445 230.065,273.594 218.66,273.594 
			218.66,315.298 228.7,315.298 228.7,290.23 231.097,294.559 242.506,315.41 253.916,315.41 253.916,273.706 243.872,273.706 
			243.872,298.773 		"/>
		<path fill-rule="evenodd" clip-rule="evenodd" fill="#00949C" d="M276.617,282.262c-5.996,0-6.504,5.342-6.504,12.184
			s0.508,12.188,6.504,12.188s6.43-5.347,6.43-12.188S282.613,282.262,276.617,282.262L276.617,282.262z M276.617,315.298
			c-12.003,0-17.634-6.632-17.634-20.853c0-14.222,5.631-20.841,17.634-20.841c12.005,0,17.433,6.619,17.433,20.841
			C294.05,308.666,288.622,315.298,276.617,315.298z"/>
		<path fill-rule="evenodd" clip-rule="evenodd" fill="#00949C" d="M51.197,315.298l-14.033-41.704H25.982l-14.101,41.704h12.047
			l2.226-8.729h11.237l2.625,8.729H51.197L51.197,315.298z M35.225,298.353H28.15l3.48-13.062L35.225,298.353z"/>
		<path fill-rule="evenodd" clip-rule="evenodd" fill="#00949C" d="M56.965,273.594v41.704h10.383v-13.12h4.336l7.53,13.12h12.209
			l-9.528-15.402c10.998-4.664,11.302-26.302-8.614-26.302H56.965L56.965,273.594z M67.463,294.134v-11.295h4.978
			c9.414,0.103,6.39,11.455,0.113,11.296L67.463,294.134z"/>
	</g>
</g>
<g id="Layer_6_copy" display="none">
	<g display="inline">
		<path fill-rule="evenodd" clip-rule="evenodd" fill="#BBBBBB" d="M4.352,184.271c0,73.151,100.575,100.39,150.264,25.9
			c51.492,77.229,148.033,44.855,148.033-26.015c0-70.87-96.084-104.944-148.033-25.813C105.384,80.126,4.352,111.12,4.352,184.271
			L4.352,184.271z M30.762,184.271c0-52.787,74.602-69.448,109.305,0C104.678,251.141,30.762,237.059,30.762,184.271L30.762,184.271
			z M169.158,184.271c31.266-70.817,107.89-51.303,107.662,0.114C276.592,235.806,199.511,251.825,169.158,184.271z"/>
		<rect x="58.801" y="176.86" fill-rule="evenodd" clip-rule="evenodd" fill="#BBBBBB" width="44.269" height="14.604"/>
		<polygon fill-rule="evenodd" clip-rule="evenodd" fill="#BBBBBB" points="219.447,191.236 204.843,191.236 204.843,175.719 
			219.447,175.719 219.447,161.114 234.966,161.114 234.966,175.719 249.569,175.719 249.569,191.236 234.966,191.236 
			234.966,205.841 219.447,205.841 		"/>
		<path fill="#BBBBBB" d="M288.36,126.375v-6.562h-1.815v-1.336h4.857v1.336h-1.81v6.562H288.36L288.36,126.375z M292.184,126.375
			v-7.898h1.847l1.108,5.388l1.098-5.388h1.852v7.898h-1.146v-6.217l-1.214,6.217h-1.188l-1.21-6.217v6.217H292.184z"/>
		<path fill-rule="evenodd" clip-rule="evenodd" fill="#BBBBBB" d="M130.747,294.445c0.071,14.357-7.306,21.309-21.564,20.853
			H96.976v-20.853v-20.83h12.207C123.441,273.159,130.818,280.103,130.747,294.445L130.747,294.445z M120.536,294.445
			c0.043-8.206-4.254-12.112-12.893-11.714v11.714v11.729C116.282,306.569,120.579,302.662,120.536,294.445z"/>
		<path fill-rule="evenodd" clip-rule="evenodd" fill="#BBBBBB" d="M154.654,315.298c-11.736,0-16.318-3.904-16.774-13.802v-27.902
			h10.725v27.445c-0.233,4.405,1.785,6.275,6.05,6.275c4.264,0,6.255-1.87,6.021-6.275v-27.445h10.679v27.902
			C170.9,311.394,166.392,315.298,154.654,315.298z"/>
		<polygon fill-rule="evenodd" clip-rule="evenodd" fill="#BBBBBB" points="195.27,273.594 179.638,273.594 179.638,282.515 
			190.018,282.515 190.018,294.445 190.018,306.376 179.638,306.376 179.638,315.298 195.27,315.298 210.889,315.298 
			210.889,306.376 200.513,306.376 200.513,294.445 200.513,282.515 210.889,282.515 210.889,273.594 		"/>
		<polygon fill-rule="evenodd" clip-rule="evenodd" fill="#BBBBBB" points="241.475,294.445 230.065,273.594 218.66,273.594 
			218.66,315.298 228.7,315.298 228.7,290.23 231.097,294.559 242.506,315.41 253.916,315.41 253.916,273.706 243.872,273.706 
			243.872,298.773 		"/>
		<path fill-rule="evenodd" clip-rule="evenodd" fill="#BBBBBB" d="M276.617,282.262c-5.996,0-6.504,5.342-6.504,12.184
			s0.508,12.188,6.504,12.188s6.43-5.347,6.43-12.188S282.613,282.262,276.617,282.262L276.617,282.262z M276.617,315.298
			c-12.003,0-17.634-6.632-17.634-20.853c0-14.222,5.631-20.841,17.634-20.841c12.005,0,17.433,6.619,17.433,20.841
			C294.05,308.666,288.622,315.298,276.617,315.298z"/>
		<path fill-rule="evenodd" clip-rule="evenodd" fill="#BBBBBB" d="M51.197,315.298l-14.033-41.704H25.982l-14.101,41.704h12.047
			l2.226-8.729h11.237l2.625,8.729H51.197L51.197,315.298z M35.225,298.353H28.15l3.48-13.062L35.225,298.353z"/>
		<path fill-rule="evenodd" clip-rule="evenodd" fill="#BBBBBB" d="M56.965,273.594v41.704h10.383v-13.12h4.336l7.53,13.12h12.209
			l-9.528-15.402c10.998-4.664,11.302-26.302-8.614-26.302H56.965L56.965,273.594z M67.463,294.134v-11.295h4.978
			c9.414,0.103,6.39,11.455,0.113,11.296L67.463,294.134z"/>
	</g>
</g>
<g id="Layer_5_copy" display="none">
	<path display="inline" fill="#BBBBBB" d="M5.5,66v296h296V66H5.5z M166.582,296.865c0,28.81-16.888,41.925-41.527,41.925
		c-22.251,0-35.167-11.524-41.725-25.432h0v-0.001c0,0,0,0,0,0.001l22.652-13.708c4.37,7.749,8.346,14.304,17.881,14.304
		c9.141,0,14.903-3.576,14.903-17.482v-94.579h27.817V296.865z M232.356,338.792c-25.83,0-42.521-12.319-50.666-28.414
		l22.649-13.113c5.963,9.736,13.712,16.89,27.42,16.89c11.526,0,18.876-5.763,18.876-13.71c0-9.538-7.55-12.916-20.267-18.478
		l-6.952-2.982c-20.07-8.543-33.383-19.271-33.383-41.922c0-20.864,15.895-36.76,40.733-36.76c17.684,0,30.399,6.16,39.539,22.254
		l-21.658,13.908c-4.769-8.543-9.934-11.92-17.881-11.92c-8.147,0-13.313,5.166-13.313,11.92c0,8.346,5.166,11.725,17.087,16.891
		l6.953,2.979c23.646,10.134,36.959,20.465,36.959,43.712C278.453,325.083,258.781,338.792,232.356,338.792z"/>
</g>
<g id="Layer_4_copy" display="none">
	<g display="inline">
		<path fill-rule="evenodd" clip-rule="evenodd" fill="#BBBBBB" d="M89.747,187.377H79.598l-5.676,29.208h7.85
			c6.563,0,11.438-1.194,14.483-3.539c2.999-2.307,5.079-6.353,6.182-12.023c1-5.157,0.646-8.862-1.025-10.718
			C100.206,188.971,97.203,187.377,89.747,187.377z"/>
		<path fill-rule="evenodd" clip-rule="evenodd" fill="#BBBBBB" d="M227.979,187.377h-10.147l-5.676,29.208h7.849
			c6.565,0,11.437-1.194,14.483-3.539c2.998-2.307,5.079-6.353,6.182-12.023c1.003-5.157,0.646-8.862-1.023-10.718
			C238.438,188.971,235.436,187.377,227.979,187.377z"/>
		<path fill-rule="evenodd" clip-rule="evenodd" fill="#BBBBBB" d="M153.878,132.904c-81.846,0-148.198,33.626-148.198,75.102
			c0,41.479,66.352,75.104,148.198,75.104c81.847,0,148.197-33.625,148.197-75.104C302.075,166.53,235.725,132.904,153.878,132.904z
			 M161.823,233.354c-0.458-0.553-0.645-1.284-0.506-1.991l6.99-35.972c0.866-4.457,0.095-5.871-0.278-6.273
			c-0.41-0.439-1.913-1.463-7.051-1.463h-12.056l-8.672,44.628c-0.22,1.131-1.212,1.95-2.366,1.95h-17.571
			c-0.719,0-1.4-0.322-1.859-0.879c-0.457-0.553-0.643-1.284-0.505-1.991l3.157-16.248c-1.934,3.378-4.447,6.504-7.487,9.3
			c-3.764,3.521-8.034,6.08-12.674,7.588c-4.539,1.479-10.349,2.23-17.268,2.23H70.493l-3.822,19.663
			c-0.221,1.134-1.213,1.949-2.367,1.949H46.595c-0.721,0-1.401-0.318-1.859-0.875c-0.458-0.556-0.644-1.288-0.506-1.991
			l15.802-81.301c0.221-1.133,1.212-1.951,2.366-1.951h34.056c10.925,0,19.078,2.992,24.232,8.891
			c2.798,3.205,4.547,7.09,5.258,11.611l7.806-40.167c0.22-1.132,1.211-1.95,2.366-1.95h17.57c0.72,0,1.402,0.321,1.86,0.877
			c0.458,0.556,0.643,1.286,0.506,1.994l-3.644,18.744h12.73c10.57,0,17.771,1.894,22.012,5.789
			c4.378,4.023,5.759,10.394,4.1,18.933l-7.352,37.834c-0.221,1.131-1.213,1.95-2.366,1.95h-17.849
			C162.962,234.232,162.282,233.91,161.823,233.354z M262.702,203.185c-0.815,4.202-2.221,8.104-4.175,11.604
			c-1.959,3.5-4.542,6.738-7.68,9.625c-3.766,3.521-8.036,6.08-12.676,7.588c-4.537,1.479-10.348,2.23-17.268,2.23h-13.183
			l-3.82,19.663c-0.22,1.134-1.215,1.949-2.368,1.949h-17.709c-0.721,0-1.401-0.318-1.859-0.875
			c-0.459-0.556-0.643-1.288-0.506-1.991l15.801-81.301c0.221-1.133,1.213-1.951,2.367-1.951h34.055
			c10.926,0,19.079,2.992,24.23,8.891C263.105,184.561,264.717,192.825,262.702,203.185z"/>
	</g>
</g>
<g id="Layer_3_copy" display="none">
	<path display="inline" fill-rule="evenodd" clip-rule="evenodd" fill="#BBBBBB" d="M265.942,47.808V44h15.85v3.808h-5.703V63.03
		h-4.443V47.808H265.942L265.942,47.808z M286.87,48.443V63.03h-4.442V44h5.713l5.069,14.591L298.287,44h5.079v19.03h-3.809V48.443
		l-5.079,14.587h-2.529L286.87,48.443L286.87,48.443z"/>
	<path display="inline" fill-rule="evenodd" clip-rule="evenodd" fill="#BBBBBB" d="M177.127,44h82.467c0,0.634,0,220.121,0,220.121
		c0,0.635-56.459-130.041-82.467-190.305V44L177.127,44z M177.127,264.121c4.444,0,8.886,0,12.687,0
		c0.635,0-5.069-12.051-12.687-29.177V264.121L177.127,264.121z M164.442,44h12.685v29.816C169.519,56.057,164.442,44,164.442,44
		L164.442,44z M177.127,234.944v29.177c-8.878,0-17.12,0-25.373,0c0-0.634-18.391-44.405-18.391-44.405c-13.322,0-26.642,0-39.963,0
		v-5.075c8.243-18.396,38.059-87.539,37.423-86.905C130.823,127.736,160.007,194.979,177.127,234.944L177.127,234.944z M93.4,49.709
		V44c1.265,0,1.9,0,1.9,0S94.665,45.905,93.4,49.709L93.4,49.709z M93.4,44v5.709C79.443,83.329,3.952,264.121,3.952,264.121
		c0-0.634,0-220.121,0-220.121S79.443,44,93.4,44L93.4,44z M93.4,214.641c-1.27,3.17-1.904,5.075-2.539,5.075
		c1.27,0,1.904,0,2.539,0V214.641L93.4,214.641z"/>
	<path display="inline" fill-rule="evenodd" clip-rule="evenodd" fill="#BBBBBB" d="M240.56,387.817V375.13l0,0
		c3.173,0,6.347-0.635,7.617-7.607h13.32C258.324,386.556,247.541,387.817,240.56,387.817L240.56,387.817z M240.56,358.645v-10.791
		h8.252c-0.635-12.687-3.808-15.226-8.252-15.226l0,0V319.95h0.635c8.887,0,20.938,5.068,20.938,35.521v3.174H240.56L240.56,358.645
		z M240.56,319.95v12.678c-7.609,0.644-8.242,10.782-8.242,15.226h8.242v10.791h-8.242c0,14.59,4.441,16.485,8.242,16.485v12.688
		c0,0,0,0-0.636,0c-7.606,0-21.563-2.53-21.563-33.616C218.36,332.628,227.238,320.577,240.56,319.95L240.56,319.95z
		 M189.813,387.817V375.13l0,0c6.982,0,8.251-11.417,8.251-20.929c0-17.765-5.077-21.573-8.251-21.573l0,0v-12.051
		c1.271-0.627,1.904-0.627,3.174-0.627c13.956,0,19.033,14.583,19.033,33.616c0,19.668-5.077,34.251-19.033,34.251
		C191.718,387.817,190.448,387.817,189.813,387.817L189.813,387.817z M189.813,320.577v12.051c-3.801,0-8.878,3.809-8.878,21.573
		c0,8.243,1.269,20.929,8.878,20.929v12.688c-3.801-1.262-6.338-3.8-8.878-9.514h-0.635v7.608h-12.052v-87.543h13.322v29.189
		C183.476,323.115,186.649,321.211,189.813,320.577L189.813,320.577z M137.799,387.817V375.13c5.712,0,8.887-5.077,8.887-20.929
		c0-17.13-3.809-21.573-8.887-21.573V319.95c15.224,0,21.572,14.583,21.572,34.251C159.371,373.861,153.023,387.817,137.799,387.817
		L137.799,387.817z M137.799,319.95v12.678c-3.804,0-8.244,3.174-8.244,21.573c0,18.392,4.439,20.929,8.244,20.929v12.688
		c-15.222,0-22.199-13.956-22.199-33.616C115.6,334.533,122.577,319.95,137.799,319.95L137.799,319.95z M85.148,387.817v-12.051l0,0
		c7.616,0,8.882-12.054,8.882-21.565c0-17.765-5.074-21.573-8.882-21.573l0,0v-12.051c3.174,0.634,5.073,2.538,8.251,6.347v-28.555
		h13.322v87.543H94.665v-7.608h-0.634C92.13,382.747,88.957,386.556,85.148,387.817L85.148,387.817z M40.745,298.369l20.299,87.543
		h-14.59l-3.174-16.485h-9.513v-14.591h6.343l-6.343-32.99v0.635v-24.111H40.745L40.745,298.369z M85.148,320.577v12.051
		c-3.17,0.644-8.248,3.809-8.248,21.573c0,8.243,1.273,20.929,8.248,21.565v12.051c-0.635,0-1.905,0-3.17,0
		c-13.321,0-19.029-15.225-19.029-34.251c0-15.859,4.438-33.616,19.029-33.616C83.244,319.95,84.513,319.95,85.148,320.577
		L85.148,320.577z M33.768,369.427h-8.878l-3.808,16.485H6.49l20.299-87.543h6.979v24.111l-6.344,32.355h6.344V369.427
		L33.768,369.427z"/>
</g>
<g id="Layer_2_copy">
	<g>
		<g>
			<g>
				<polygon fill="#BBBBBB" points="86.363,47.665 86.363,30.142 111.929,30.142 111.929,10.967 67.187,10.967 67.187,65.164 
					111.929,65.164 111.929,47.665 				"/>
				<path fill="#BBBBBB" d="M157.923,30.142h17.874V10.967h-44.746c0,0,0,9.625,0,19.175c5.985,5.987,9.109,8.852,17.766,17.511
					c-5.061,0-17.766,0.019-17.766,0.017v17.495h44.746V47.665L157.923,30.142z"/>
				<path fill="#BBBBBB" d="M221.343,30.142h17.874V10.967h-44.749c0,0,0,9.625,0,19.175c5.986,5.987,9.11,8.852,17.769,17.511
					c-5.06,0-17.769,0.019-17.769,0.017v17.495h44.749V47.665L221.343,30.142z"/>
			</g>
			<path fill="#BBBBBB" d="M8.256,90.922L35.432,385.34l117.769,31.71l117.768-31.71l27.18-294.418H8.256z M239.783,186.34
				l-86.688,37.062l-0.208,0.089h0.208h83.626l-9.587,110.258L153.23,355.32l-0.135-0.04v0.04l-74.304-21.97l-4.794-55.53h0.13
				h36.623h0.13l2.397,28.764l39.483,9.97l0.335-0.096v0.039l40.881-11.511l2.797-46.341l-102.902-0.329l-22.271-0.07l-2.796-34.755
				l84.291-35.105l4.913-2.046h-4.913H65.608l-4.394-35.554h91.881h90.284L239.783,186.34z"/>
		</g>
	</g>
</g>
</svg>
